<?xml version="1.0" standalone="no"?><!DOCTYPE svg PUBLIC "-//W3C//DTD SVG 1.1//EN" "http://www.w3.org/Graphics/SVG/1.1/DTD/svg11.dtd"><svg t="1655192387258" class="icon" viewBox="0 0 1024 1024" version="1.1" xmlns="http://www.w3.org/2000/svg" p-id="44774" xmlns:xlink="http://www.w3.org/1999/xlink" width="200" height="200"><defs><style type="text/css">@font-face { font-family: feedback-iconfont; src: url("//at.alicdn.com/t/font_1031158_u69w8yhxdu.woff2?t=1630033759944") format("woff2"), url("//at.alicdn.com/t/font_1031158_u69w8yhxdu.woff?t=1630033759944") format("woff"), url("//at.alicdn.com/t/font_1031158_u69w8yhxdu.ttf?t=1630033759944") format("truetype"); }
</style></defs><path d="M517.2224 85.76c-232.0896 0-420.864 188.8256-420.864 420.864 0 232.0896 188.8256 420.864 420.864 420.864s420.864-188.8256 420.864-420.864-188.8256-420.864-420.864-420.864z m0 800.8192c-209.5104 0-379.904-170.4448-379.904-379.904 0-209.5104 170.4448-379.904 379.904-379.904 209.5104 0 379.904 170.4448 379.904 379.904 0 209.4592-170.4448 379.904-379.904 379.904z" fill="#00A0E9" p-id="44775"></path><path d="M520.5504 237.312c-150.1184 0-272.2304 122.112-272.2304 272.2304s122.112 272.2304 272.2304 272.2304 272.2304-122.112 272.2304-272.2304-122.112-272.2304-272.2304-272.2304zM291.4304 478.4128c37.8368-16.1792 79.5648 5.1712 80.128 12.3904 0.8704 11.0592-7.6288 39.0656 50.1248 62.8736 57.7536 23.808 30.5664-57.7536 16.9984-94.3104-13.568-36.5568 17.8176-55.2448 36.5056-62.8736 18.688-7.6288 62.0032-8.4992 59.4432-55.2448-1.28-23.552-51.8656-37.5808-101.8368-45.7216a229.57056 229.57056 0 0 1 87.7056-17.3056c51.2512 0 98.6624 16.7936 137.0624 45.1584-21.76 26.5728-52.48 64.6144-61.696 78.7456-14.336 21.9648-23.6544 49.8176 21.0944 41.3696 44.7488-8.448 61.5936-12.6464 68.352-4.1984 6.7584 8.448 21.0944 38.8096 20.2752 45.568-0.8192 6.7584-2.5088 10.9568-27.8528 10.9568s-117.2992 2.5088-116.48 56.5248c0.8192 54.016 29.5424 70.912 48.128 86.0672 18.5856 15.2064 35.4304 21.9648 19.4048 59.904-2.4064 5.7344-4.7616 12.1856-6.9632 19.0464a229.53472 229.53472 0 0 1-101.3248 23.3984c-127.5392 0-231.2704-103.7312-231.2704-231.2704 0.0512-10.496 0.8192-20.8896 2.2016-31.0784z" fill="#00A0E9" p-id="44776"></path></svg>